<svg width="169" height="135" viewBox="0 0 169 135" fill="none" xmlns="http://www.w3.org/2000/svg">
<g clip-path="url(#clip0)">
<g style="mix-blend-mode:lighten">
<g style="mix-blend-mode:lighten">
<g style="mix-blend-mode:lighten">
<path style="mix-blend-mode:lighten" opacity="0.2" d="M166.307 3.05201C164.725 1.28203 162.516 0.196358 160.148 0.0243172C157.781 -0.147724 155.439 0.607334 153.617 2.13001L70.755 71.665C70.5578 71.8281 70.3298 71.95 70.0846 72.0233C69.8394 72.0967 69.582 72.1201 69.3275 72.0921C69.0731 72.0641 68.8269 71.9853 68.6035 71.8604C68.3801 71.7356 68.1841 71.5671 68.027 71.365V71.365C67.7313 70.9847 67.5939 70.5048 67.6435 70.0256C67.693 69.5464 67.9257 69.1048 68.293 68.793L117.709 26.737C118.3 26.2376 118.786 25.6253 119.138 24.936C119.49 24.2466 119.701 23.4941 119.759 22.7223C119.817 21.9505 119.72 21.1749 119.475 20.4408C119.229 19.7068 118.84 19.029 118.33 18.447C117.29 17.2633 115.827 16.5356 114.255 16.421C112.684 16.3063 111.131 16.8138 109.93 17.834L7.68801 104.598C5.38801 106.564 4.96001 111.681 6.65801 114.105C10.136 117.243 10.067 121.895 13.006 125.491L18.461 120.852C18.6973 121.622 19.0948 122.334 19.627 122.939L24.012 127.939C25.0546 129.116 26.516 129.839 28.0843 129.954C29.6526 130.068 31.2035 129.565 32.406 128.552L165.371 15.691C166.275 14.931 167.018 13.9978 167.555 12.9464C168.093 11.895 168.415 10.7466 168.502 9.56887C168.589 8.39116 168.439 7.20793 168.062 6.08889C167.685 4.96985 167.087 3.93762 166.305 3.05301L166.307 3.05201Z" fill="url(#paint0_linear)"/>
</g>
</g>
</g>
<path opacity="0.2" d="M15.284 91.938L13.325 89.655C12.9337 89.1967 12.7402 88.6019 12.7869 88.001C12.8336 87.4002 13.1167 86.8424 13.574 86.45L71.274 36.98C71.7331 36.5905 72.3275 36.3982 72.9278 36.4448C73.528 36.4914 74.0856 36.7733 74.479 37.229L76.438 39.505C76.8301 39.9625 77.0248 40.5567 76.9794 41.1575C76.9341 41.7583 76.6523 42.3166 76.196 42.71L18.496 92.18C18.0378 92.5703 17.4439 92.7639 16.8437 92.7186C16.2435 92.6733 15.6854 92.3927 15.291 91.938H15.284Z" fill="url(#paint1_linear)"/>
<path d="M14.766 93.339C14.86 93.629 15.54 93.339 15.635 92.854C15.056 92.854 15.056 91.79 15.446 91.595C16.025 91.204 16.9 91.305 17.385 90.922C17.675 90.722 17.385 90.047 17.185 89.952C16.411 89.662 15.535 88.888 15.63 88.302C15.93 87.144 19.125 85.609 17.091 84.814C16.7 84.72 16.505 85.979 16.121 85.878C15.7897 85.7996 15.4859 85.633 15.2417 85.3959C14.9974 85.1587 14.822 84.8598 14.734 84.531L11.044 87.379C10.8178 87.5485 10.6638 87.797 10.6127 88.075C10.5615 88.353 10.617 88.6401 10.768 88.879L13.104 92.609C13.79 92.444 14.376 92.322 14.766 93.339Z" fill="#6DA740"/>
<path d="M20.516 87.912L19.297 86.862C19.139 86.7236 19.0235 86.5432 18.9638 86.3418C18.9042 86.1403 18.9028 85.9261 18.96 85.724L19.16 85.051C19.2003 84.9064 19.2111 84.7551 19.1916 84.6062C19.1722 84.4574 19.123 84.3139 19.0469 84.1845C18.9709 84.055 18.8695 83.9422 18.7489 83.8528C18.6283 83.7634 18.491 83.6992 18.345 83.664L16.998 83.341C16.8351 83.2989 16.6647 83.2951 16.5001 83.3298C16.3354 83.3645 16.1811 83.4368 16.049 83.541L14.702 84.571C14.79 84.8998 14.9654 85.1987 15.2096 85.4359C15.4539 85.673 15.7577 85.8396 16.089 85.918C16.473 86.018 16.668 84.76 17.059 84.854C19.079 85.628 15.894 87.184 15.598 88.342C15.504 88.928 16.379 89.689 17.153 89.992C17.353 90.086 17.638 90.766 17.353 90.962C16.868 91.353 16.006 91.252 15.414 91.635C15.023 91.835 15.023 92.894 15.603 92.894C15.509 93.379 14.829 93.668 14.734 93.379C14.343 92.362 13.758 92.479 13.084 92.618L13.744 93.601C13.8738 93.8081 14.0678 93.967 14.2965 94.0533C14.5251 94.1396 14.7757 94.1487 15.01 94.079L19.932 92.631C20.1528 92.5669 20.3486 92.4367 20.4931 92.2579C20.6376 92.0791 20.7237 91.8603 20.74 91.631L20.881 88.823C20.8941 88.6557 20.8687 88.4876 20.8068 88.3316C20.745 88.1756 20.6482 88.0359 20.524 87.923L20.516 87.912Z" fill="#1C8120"/>
<path d="M41.733 118.576C42.305 118.387 42.568 117.856 43.08 117.553C42.737 117.102 43.12 116.947 43.154 116.536C43.194 116.267 42.891 116.004 42.629 115.816C42.589 115.816 42.548 115.93 42.474 115.89C42.4365 115.851 42.4099 115.803 42.397 115.75C42.384 115.697 42.385 115.642 42.4 115.59C42.629 115.327 43.228 115.368 43.12 114.917C42.82 115.017 42.642 114.917 42.575 114.675L41.807 114.769C41.668 114.786 41.5394 114.852 41.4435 114.954C41.3477 115.056 41.2905 115.188 41.282 115.328V115.644C41.2757 115.746 41.2433 115.845 41.188 115.931C41.1327 116.017 41.0563 116.088 40.966 116.136L40.69 116.291C40.6173 116.331 40.5536 116.385 40.5029 116.45C40.4522 116.516 40.4156 116.591 40.3954 116.671C40.3752 116.752 40.3718 116.835 40.3855 116.917C40.3992 116.999 40.4297 117.077 40.475 117.146L41.391 118.493C41.49 118.401 41.645 118.341 41.733 118.576Z" fill="#6DA740"/>
<path d="M44.52 116.112L43.355 114.826C43.2919 114.752 43.2116 114.696 43.1212 114.661C43.0308 114.626 42.9331 114.614 42.837 114.626H42.568C42.635 114.868 42.817 114.969 43.113 114.868C43.221 115.326 42.621 115.285 42.393 115.541C42.378 115.593 42.377 115.648 42.39 115.701C42.4029 115.754 42.4295 115.802 42.467 115.841C42.541 115.881 42.581 115.767 42.622 115.767C42.885 115.956 43.188 116.218 43.147 116.487C43.147 116.898 42.73 117.053 43.073 117.504C42.581 117.804 42.319 118.339 41.726 118.527C41.638 118.291 41.484 118.352 41.349 118.446L41.49 118.661C41.5382 118.732 41.6011 118.792 41.6745 118.837C41.7479 118.882 41.83 118.91 41.9154 118.92C42.0007 118.931 42.0872 118.922 42.1691 118.896C42.251 118.87 42.3263 118.827 42.39 118.769L44.45 116.911C44.5582 116.81 44.6252 116.672 44.6381 116.525C44.651 116.377 44.609 116.23 44.52 116.112V116.112Z" fill="#1C8120"/>
<path d="M17.614 129.626C16.793 127.99 14.066 130.717 13.244 129.895C11.608 128.548 10.51 126.353 9.419 124.441C8.874 123.35 11.062 122.535 11.062 122.259C9.962 117.896 11.877 115.99 15.156 115.714C18.156 115.438 20.886 120.899 23.62 120.353C26.62 119.808 30.441 113.532 25.526 112.441C24.179 112.165 22.254 111.896 22.833 111.094C24.469 107.276 28.563 104.28 31.586 100.994C28.394 98.974 29.775 97.082 31.748 95.257C31.3862 95.0856 30.9859 95.0115 30.5868 95.0422C30.1876 95.0729 29.8033 95.2073 29.472 95.432L20.261 101.674C19.8335 101.969 19.3183 102.11 18.8 102.074L14.3 101.758C13.8965 101.726 13.4919 101.803 13.128 101.98L7.667 104.626C7.26318 104.823 6.9244 105.131 6.691 105.515L5.07 108.207C4.84416 108.584 4.51472 108.887 4.121 109.082C3.82429 109.23 3.56301 109.44 3.35502 109.698C3.14704 109.956 2.99728 110.256 2.916 110.577L2.142 113.607C2.0357 114.047 1.80152 114.445 1.469 114.752L0.796 115.371C0.549562 115.585 0.351208 115.848 0.214005 116.144C0.0768026 116.44 0.00386577 116.762 0 117.088L0.081 125.107C0.0818998 125.528 0.200732 125.94 0.424 126.296L2.693 129.959C2.85675 130.227 3.074 130.459 3.33121 130.64C3.58842 130.82 3.88007 130.946 4.188 131.009L16.752 133.628C17.587 132.232 18.429 130.925 17.614 129.626Z" fill="#6DA740"/>
<path d="M36.811 104.469C36.9547 104.127 37.0133 103.756 36.9816 103.386C36.9499 103.017 36.8289 102.66 36.629 102.348L32.663 96.113C32.429 95.7421 32.0919 95.4474 31.693 95.265C29.72 97.09 28.326 98.948 31.531 101.002C28.531 104.274 24.431 107.271 22.778 111.102C22.233 111.923 24.125 112.193 25.471 112.449C30.386 113.54 26.571 119.815 23.565 120.361C20.831 120.906 18.104 115.446 15.101 115.722C11.822 115.998 9.91 117.904 11.007 122.267C11.007 122.543 8.81901 123.358 9.36401 124.449C10.455 126.361 11.552 128.543 13.189 129.903C14.01 130.724 16.737 127.997 17.559 129.634C18.374 130.934 17.559 132.24 16.659 133.6L19.559 134.2C19.9956 134.292 20.4496 134.255 20.8656 134.094C21.2817 133.932 21.6417 133.653 21.902 133.291L23.363 131.271C23.5598 130.998 23.8139 130.77 24.1075 130.605C24.4011 130.44 24.7272 130.341 25.063 130.315L32.348 129.756C32.8521 129.725 33.3325 129.532 33.7165 129.203C34.1005 128.875 34.3671 128.431 34.476 127.938L36.254 120.238C36.3594 119.79 36.3288 119.321 36.166 118.891L33.898 112.94C33.6794 112.389 33.6794 111.774 33.898 111.223L36.811 104.469Z" fill="#1C8120"/>
<path d="M15.54 111.097C15.351 111.514 15.789 111.925 16.173 112.168L16.968 112.68C17.0799 112.738 17.1731 112.827 17.237 112.936C17.378 113.252 16.968 113.536 16.826 113.852C16.7729 113.996 16.7586 114.152 16.7846 114.303C16.8106 114.454 16.8759 114.596 16.974 114.714C17.1744 114.948 17.4135 115.147 17.681 115.3L18.617 115.906C18.7568 116.01 18.9217 116.076 19.095 116.095C19.3336 116.058 19.5485 115.93 19.695 115.738C20.133 115.273 20.57 114.809 21.001 114.331C21.2014 114.165 21.3608 113.955 21.4671 113.717C21.5734 113.479 21.6237 113.22 21.614 112.96C21.6043 112.7 21.535 112.445 21.4114 112.216C21.2878 111.987 21.1132 111.789 20.901 111.638C20.6254 111.252 20.3286 110.881 20.012 110.527C18.853 109.297 16.348 109.304 15.54 111.097Z" fill="#1C8120"/>
<path d="M0.996999 123.39C1.14551 123.921 1.37234 124.426 1.67 124.89L3.69 128.324C3.9232 128.858 4.35543 129.281 4.895 129.502C5.75 129.717 6.545 128.829 6.595 127.926C6.55696 127.045 6.32729 126.184 5.922 125.401C5.82744 125.232 5.76901 125.046 5.75041 124.853C5.73182 124.661 5.75348 124.467 5.814 124.283C6.00379 124.007 6.25372 123.778 6.545 123.612C7.69 122.737 7.764 121.067 7.703 119.626C7.70638 119.464 7.6743 119.303 7.609 119.155C6.889 117.808 4.054 117.135 2.896 118.044C2.2244 118.754 1.70854 119.596 1.38152 120.516C1.05449 121.437 0.923516 122.416 0.996999 123.39V123.39Z" fill="#1C8120"/>
<path d="M23.129 103.15C23.008 103.514 23.344 103.864 23.681 104.05C23.732 104.081 23.7896 104.099 23.849 104.104C23.9291 104.093 24.0041 104.058 24.064 104.004C24.784 103.472 26.448 102.765 26.084 101.755C25.9521 101.467 25.7348 101.226 25.4615 101.065C25.1883 100.904 24.8722 100.831 24.556 100.855C24.098 100.855 23.499 101.03 23.456 101.569C23.456 101.926 23.887 102.148 23.84 102.431C23.793 102.714 23.23 102.84 23.129 103.15Z" fill="#1C8120"/>
</g>
<defs>
<linearGradient id="paint0_linear" x1="-38.8481" y1="161.422" x2="107.73" y2="-23.2481" gradientUnits="userSpaceOnUse">
<stop stop-color="#1FF85C"/>
<stop offset="0.01" stop-color="#1FF835"/>
<stop offset="0.16" stop-color="#40EC3C"/>
<stop offset="0.49" stop-color="#8CCE86"/>
<stop offset="0.98" stop-color="#9EFAFD" stop-opacity="0.22"/>
<stop offset="1" stop-color="#9CFFC4" stop-opacity="0.169"/>
</linearGradient>
<linearGradient id="paint1_linear" x1="20.6132" y1="110.399" x2="82.7588" y2="52.3164" gradientUnits="userSpaceOnUse">
<stop offset="0.01" stop-color="#1FF8B7"/>
<stop offset="0.16" stop-color="#3CEC63"/>
<stop offset="0.49" stop-color="#86CEB0"/>
<stop offset="0.98" stop-color="#9EFAFD"/>
<stop offset="1" stop-color="#9CFFFF"/>
</linearGradient>
<clipPath id="clip0">
<rect width="168.53" height="134.247" fill="white"/>
</clipPath>
</defs>
</svg>
